# xmcd
#
# Track frame offsets: 
#        150
#        15218
#        34047
#        47178
#        64332
#        79381
#        92289
#        111893
#        130839
#        146529
#        161508
#        176302
#        189178
#        204233
#        225651
#        240544
#        255262
#        272185
#        295820
#        308976
#        322547
#        337723
#        352705
#        372690
#
# Disc length: 5172 seconds
#
# Revision: 2
# Processed by: cddbd v1.5.2PL0 Copyright (c) Steve Scherf et al.
# Submitted via: ExactAudioCopyFreeDBPlugin 1.0
#
DISCID=3e143218
DTITLE=Various Artist - Sweet Soul Music:  411 Scorching Classics, 19
DTITLE=61-1975 [Bear Family]
DYEAR=2014
DGENRE=Soul
TTITLE0=Labelle - Lady Marmalade
TTITLE1=Ben E. King - Supernatural Thing, Part 1
TTITLE2=The Blackbyrds - Walking in Rhythm
TTITLE3=Major Harris - Love Won't Let Me Wait
TTITLE4=Gwen Mccrae - Rockin' Chair
TTITLE5=Earth, Wind and Fire - Shining Star
TTITLE6=Barbara Mason - Shackin' Up
TTITLE7=The O'Jays - Give the People What They Want
TTITLE8=Van McCoy and The Soul City Symphony - The Hustle
TTITLE9=Latimore - Keep the Home Fires Burnin'
TTITLE10=The Commodores - Slippery When Wet
TTITLE11=Natalie Cole - This Will Be (An Everlasting Love)
TTITLE12=The Isley Brothers - Fight the Power (Part 1)
TTITLE13=The Pointer Sisters - How Long (Betcha' Got A Chick on the Si
TTITLE13=de)
TTITLE14=People's Choice - Do it Any Way You Wanna
TTITLE15=Tavares - It Only Takes a Minute
TTITLE16=Mille Jackson - Loving Arms
TTITLE17=Al Green - Full of Fire
TTITLE18=The Ohio Players - Love Rollercoaster (single edit)
TTITLE19=The Miracles - Love Machine, Part 1
TTITLE20=Rufus with Chaka Khan - Sweet Thing
TTITLE21=The Trammps - Hold Back the Night
TTITLE22=Tyrone Davis - Turning Point
TTITLE23=The Sylvers - Boogie Fever
EXTD=
EXTT0=
EXTT1=
EXTT2=
EXTT3=
EXTT4=
EXTT5=
EXTT6=
EXTT7=
EXTT8=
EXTT9=
EXTT10=
EXTT11=
EXTT12=
EXTT13=
EXTT14=
EXTT15=
EXTT16=
EXTT17=
EXTT18=
EXTT19=
EXTT20=
EXTT21=
EXTT22=
EXTT23=
PLAYORDER=
